<?xml version="1.0" standalone="no"?>
<!DOCTYPE svg PUBLIC "-//W3C//DTD SVG 20010904//EN"
 "http://www.w3.org/TR/2001/REC-SVG-20010904/DTD/svg10.dtd">
<svg version="1.0" xmlns="http://www.w3.org/2000/svg"
 width="500.000000pt" height="500.000000pt" viewBox="0 0 500.000000 500.000000"
 preserveAspectRatio="xMidYMid meet">

<g transform="translate(0.000000,500.000000) scale(0.100000,-0.100000)"
fill="#000000" stroke="none">
<path d="M2270 4473 c-426 -66 -727 -200 -1028 -458 -114 -98 -130 -115 -233
-240 -464 -563 -562 -1372 -245 -2030 272 -568 771 -950 1398 -1072 75 -14
142 -18 343 -18 222 0 262 3 360 23 520 109 957 404 1245 842 315 479 394
1100 210 1652 -202 606 -683 1065 -1305 1243 -167 48 -310 65 -525 64 -107 -1
-206 -3 -220 -6z m381 -196 c-13 -13 -26 -3 -16 12 3 6 11 8 17 5 6 -4 6 -10
-1 -17z m-327 -1 c-3 -8 -12 -12 -21 -9 -12 5 -12 7 -1 14 20 13 28 11 22 -5z
m-4 -81 c0 -8 -4 -15 -10 -15 -5 0 -10 7 -10 15 0 8 5 15 10 15 6 0 10 -7 10
-15z m290 -34 c0 -4 -5 -12 -12 -19 -9 -9 -1 -12 36 -12 34 0 53 5 61 17 13
17 35 11 35 -10 0 -8 36 -20 93 -31 97 -19 243 -65 315 -98 34 -16 40 -23 31
-34 -6 -8 -17 -14 -23 -14 -6 0 -4 5 4 11 12 8 10 9 -9 4 -15 -5 -21 -3 -17 3
3 6 2 13 -3 16 -10 7 -9 -13 2 -31 14 -23 -10 -21 -96 7 -120 39 -145 44 -162
30 -16 -13 -35 -5 -35 15 0 9 -21 16 -62 22 -56 7 -65 6 -79 -11 -16 -20 -39
-15 -39 9 0 29 -194 31 -370 4 -36 -6 -87 -12 -115 -14 -53 -5 -153 -32 -122
-34 22 -1 17 -25 -6 -29 -10 -2 -17 3 -17 12 0 20 2 21 -75 -10 -53 -21 -63
-29 -54 -40 6 -8 9 -21 5 -29 -8 -21 -37 -19 -43 4 -4 17 -9 18 -32 10 -58
-22 -241 -144 -241 -161 0 -22 -18 -32 -34 -19 -17 14 -131 -83 -131 -112 0
-14 -8 -21 -25 -22 -26 -2 -51 -28 -142 -150 -94 -125 -92 -116 8 35 75 112
183 236 277 315 40 34 66 64 65 74 -2 12 6 17 31 19 32 3 120 52 93 52 -6 0
-12 6 -12 14 0 18 40 32 49 17 13 -20 71 10 71 36 0 24 19 30 36 13 6 -6 43 2
107 25 108 39 254 71 370 81 66 6 77 9 77 25 0 22 11 24 28 7 7 -7 37 -15 67
-18 45 -5 55 -4 50 8 -3 8 -3 17 0 22 6 9 45 1 45 -9z m-1060 -20 c0 -12 -20
-25 -27 -18 -7 7 6 27 18 27 5 0 9 -4 9 -9z m180 -46 c0 -8 -7 -15 -15 -15 -8
0 -15 7 -15 15 0 8 7 15 15 15 8 0 15 -7 15 -15z m500 -136 c0 -24 -23 -21
-28 4 -2 10 3 17 12 17 10 0 16 -9 16 -21z m192 -6 c13 -12 18 -27 16 -52 -4
-44 -39 -68 -84 -56 l-29 8 32 8 c39 11 54 46 27 66 -25 19 -46 16 -85 -10
-60 -40 -76 -103 -39 -150 28 -36 80 -44 144 -24 27 9 52 14 54 12 11 -11 -94
-45 -140 -45 -44 0 -54 4 -85 35 -33 33 -35 39 -31 80 13 112 150 192 220 128z
m813 -4 c-4 -5 -12 -9 -18 -9 -7 0 -6 4 3 10 13 9 13 10 0 11 -8 1 -19 1 -23
0 -5 -1 -6 3 -2 9 4 7 12 7 26 0 11 -6 17 -15 14 -21z m55 -14 c14 -19 14 -19
-2 -6 -10 7 -18 18 -18 24 0 6 1 8 3 6 1 -2 9 -13 17 -24z m-90 -3 c0 -4 -18
-7 -40 -7 -22 0 -40 3 -40 7 0 5 18 8 40 8 22 0 40 -3 40 -8z m-1750 -16 c0
-17 -14 -29 -23 -20 -8 8 3 34 14 34 5 0 9 -6 9 -14z m1560 -2 c0 -3 -7 -12
-15 -20 -13 -14 -15 -13 -15 5 0 12 6 21 15 21 8 0 15 -3 15 -6z m210 -4 c-8
-5 -19 -10 -25 -10 -5 0 -3 5 5 10 8 5 20 10 25 10 6 0 3 -5 -5 -10z m-1720
-71 c0 -5 -7 -9 -15 -9 -15 0 -20 12 -9 23 8 8 24 -1 24 -14z m1000 -53 c0 -2
-8 -10 -17 -17 -16 -13 -17 -12 -4 4 13 16 21 21 21 13z m67 -91 c-73 -64
-253 -116 -327 -95 -51 15 -64 45 -33 75 14 15 18 15 27 3 18 -24 52 -38 91
-38 61 0 168 29 220 60 65 38 69 37 22 -5z m87 -57 c-43 -58 -182 -139 -293
-172 -72 -21 -159 -21 -183 1 -23 21 -23 34 4 68 l21 27 18 -23 c16 -21 25
-24 75 -22 100 3 263 64 339 127 36 29 44 26 19 -6z m86 -13 c0 -2 34 -171 75
-375 41 -204 72 -377 69 -385 -9 -23 -25 -18 -77 23 -63 49 -525 465 -526 473
-1 4 11 10 25 13 22 6 35 -1 79 -44 51 -47 85 -63 85 -39 0 5 4 8 9 4 5 -3 44
11 86 30 94 42 103 44 48 7 l-43 -28 34 -33 c21 -21 41 -31 50 -28 10 4 13 1
9 -8 -3 -10 23 -41 72 -87 43 -40 81 -74 85 -76 6 -2 -106 487 -114 495 -2 2
-30 -12 -62 -31 -57 -34 -174 -89 -174 -82 0 1 37 26 83 53 45 28 102 67 127
86 42 34 60 43 60 32z m-1197 -25 c3 -13 0 -20 -8 -20 -17 0 -28 17 -20 30 10
16 22 12 28 -10z m-153 -90 c0 -11 -6 -20 -14 -20 -21 0 -31 21 -15 31 22 14
29 11 29 -11z m-180 -64 c0 -16 -18 -31 -27 -22 -8 8 5 36 17 36 5 0 10 -6 10
-14z m-160 -11 c0 -8 -4 -15 -9 -15 -13 0 -22 16 -14 24 11 11 23 6 23 -9z
m-175 -66 c-10 -15 -25 -10 -19 6 4 8 10 12 15 9 5 -3 7 -10 4 -15z m422 -20
c16 -16 5 -39 -17 -39 -23 0 -34 16 -26 35 6 18 28 19 43 4z m-187 -39 c0 -13
-7 -20 -20 -20 -23 0 -25 5 -7 25 17 20 27 18 27 -5z m45 -110 c3 -5 -1 -10
-10 -10 -9 0 -13 5 -10 10 3 6 8 10 10 10 2 0 7 -4 10 -10z m-235 -40 c0 -13
-7 -20 -20 -20 -22 0 -28 25 -7 33 22 10 27 7 27 -13z m300 -111 c0 -6 -16
-63 -35 -127 -53 -174 -85 -342 -92 -478 -7 -139 1 -212 24 -221 21 -8 35 12
158 234 110 200 137 233 174 213 29 -15 26 -32 -3 -24 -18 4 -28 -1 -43 -23
-11 -15 -24 -39 -27 -53 -5 -18 1 -12 21 17 32 48 53 55 53 17 0 -36 17 -64
39 -64 10 0 33 14 50 32 37 38 52 31 22 -10 -28 -40 -72 -55 -101 -35 -12 8
-25 24 -29 35 -7 19 -9 17 -29 -16 -17 -28 -28 -36 -44 -34 -19 3 -33 -16 -98
-134 -41 -75 -86 -148 -100 -163 -77 -82 -128 69 -101 305 20 174 98 484 133
528 13 15 28 16 28 1z m1070 -94 c17 -21 9 -132 -28 -380 -16 -110 -36 -269
-43 -353 -8 -98 -16 -149 -22 -143 -19 19 17 438 59 680 8 46 14 109 14 140
l-1 56 -24 -30 c-38 -46 -98 -176 -149 -325 -26 -74 -54 -143 -63 -152 -43
-48 -59 2 -48 153 4 60 3 99 -3 99 -20 0 -73 -143 -116 -315 -28 -113 -52
-175 -66 -175 -5 0 -17 12 -27 26 -25 39 -30 272 -9 426 20 141 51 267 71 287
20 20 19 10 -5 -91 -42 -180 -65 -517 -40 -598 l7 -25 10 25 c6 14 23 70 37
125 62 230 113 349 145 343 13 -3 16 -22 18 -118 2 -165 2 -158 13 -138 6 9
33 78 61 154 65 178 101 256 139 305 34 42 50 48 70 24z m976 -79 c-10 -39
-36 -277 -36 -326 l0 -45 52 88 c28 48 57 87 65 87 18 0 17 -5 -13 -50 -24
-36 -26 -47 -21 -98 3 -31 13 -77 22 -101 8 -24 13 -47 9 -50 -9 -10 -34 30
-45 74 -21 84 -24 84 -50 12 -32 -89 -49 -88 -49 3 0 67 -1 70 -19 60 -43 -22
-89 -5 -103 39 -3 9 -12 1 -26 -23 -44 -75 -83 -16 -42 63 26 53 61 76 89 61
27 -14 27 -33 1 -25 -12 4 -28 1 -36 -6 -21 -17 -46 -68 -41 -82 2 -7 14 7 26
31 24 47 51 56 51 16 0 -61 39 -83 77 -41 17 18 23 45 32 142 14 145 26 195
47 195 12 0 15 -6 10 -24z m-582 -161 c-7 -49 -13 -133 -13 -185 0 -89 1 -93
13 -60 8 20 25 59 40 88 35 69 59 68 66 -2 3 -27 10 -51 17 -53 6 -2 31 29 54
69 58 98 73 108 83 58 3 -16 9 -43 12 -59 7 -32 -25 -105 -50 -114 -19 -8 -46
18 -46 44 0 18 -3 17 -24 -8 -20 -23 -28 -26 -43 -17 -10 6 -22 31 -26 55 l-9
44 -16 -30 c-9 -17 -26 -59 -37 -95 -35 -105 -65 -90 -65 33 l0 57 -42 -30
c-22 -16 -51 -30 -62 -30 -28 0 -66 27 -66 46 0 11 -13 4 -42 -20 -46 -40 -77
-45 -101 -18 -32 35 -31 159 1 170 7 2 12 -21 14 -75 3 -73 5 -78 26 -81 27
-4 76 44 98 97 19 46 42 71 66 71 10 0 18 -2 18 -4 0 -2 3 -12 7 -21 5 -14 2
-16 -14 -11 -16 5 -23 0 -32 -23 -7 -16 -11 -44 -9 -62 3 -30 7 -34 35 -37 23
-2 40 4 64 26 30 27 33 36 45 128 7 55 18 112 24 128 20 54 28 12 14 -79z
m-308 36 c-11 -18 -36 -13 -36 7 0 10 3 22 7 26 10 10 37 -20 29 -33z m1325
-81 c25 -14 25 -33 -1 -25 -26 8 -49 -10 -67 -54 -20 -48 -9 -49 18 -2 28 50
49 54 49 8 0 -62 39 -75 85 -27 16 17 32 30 37 30 16 0 8 -18 -21 -49 -44 -47
-105 -38 -123 18 -3 9 -12 1 -26 -22 -22 -38 -48 -48 -58 -23 -4 11 -11 8 -29
-10 -13 -13 -31 -24 -39 -24 -21 0 -45 39 -49 78 -5 47 -13 48 -36 5 -41 -81
-77 -82 -67 -1 8 60 25 98 43 98 14 0 11 -26 -9 -79 -14 -37 -2 -36 22 4 30
48 56 62 64 32 3 -12 6 -35 6 -50 0 -39 17 -68 35 -61 8 4 35 37 61 75 38 58
65 87 82 89 2 0 12 -5 23 -10z m64 -612 c35 -16 31 -29 -5 -17 -16 6 -30 15
-30 20 0 12 4 11 35 -3z m358 -15 c4 -3 -2 -13 -14 -21 -23 -16 -34 -10 -26
13 7 15 28 20 40 8z m-293 -23 c0 -5 -4 -10 -10 -10 -5 0 -10 5 -10 10 0 6 5
10 10 10 6 0 10 -4 10 -10z m35 -30 c3 -5 1 -10 -4 -10 -6 0 -11 5 -11 10 0 6
2 10 4 10 3 0 8 -4 11 -10z m68 -97 c9 -8 -23 -44 -33 -38 -4 2 -20 -24 -36
-58 -92 -199 -302 -445 -483 -566 -232 -154 -430 -223 -762 -266 -241 -31
-579 35 -831 161 -87 44 -106 57 -69 47 16 -4 19 -1 14 17 -3 12 -9 17 -12 12
-4 -7 -12 -6 -23 2 -10 7 -15 16 -11 19 3 4 -3 7 -15 7 -24 0 -34 11 -24 27 5
7 20 3 47 -13 22 -13 57 -31 77 -40 21 -9 36 -19 33 -23 -2 -4 9 -7 25 -6 16
1 27 -1 25 -5 -7 -11 74 -40 92 -33 9 4 14 2 11 -3 -4 -5 4 -9 15 -10 12 -1
74 -15 137 -32 152 -40 422 -67 444 -45 4 5 33 7 64 5 47 -3 62 0 81 17 28 24
41 27 41 7 0 -12 13 -11 81 4 45 9 85 23 89 30 4 7 13 9 19 6 6 -4 26 -3 44 3
17 6 48 13 67 16 78 12 289 129 417 231 34 27 85 67 113 89 67 51 219 231 227
268 3 15 14 33 23 40 10 7 32 40 50 75 31 58 47 72 63 55z m-2061 -40 c26 -23
24 -78 -4 -97 -70 -49 -157 34 -101 96 20 23 80 24 105 1z m148 -34 l45 -51
-3 51 c-3 32 0 51 7 51 7 0 11 -25 11 -65 0 -36 -4 -65 -9 -65 -5 0 -30 24
-55 52 l-46 53 0 -53 c0 -28 -4 -52 -10 -52 -6 0 -10 28 -10 65 0 45 4 65 13
65 6 0 32 -23 57 -51z m242 4 l15 -48 16 38 c19 45 31 47 47 7 17 -40 24 -38
39 10 10 35 31 56 31 31 0 -18 -43 -121 -50 -121 -4 0 -15 19 -25 42 l-16 42
-20 -44 c-11 -24 -23 -39 -28 -34 -4 5 -17 35 -29 67 -16 42 -18 57 -8 57 7 0
19 -21 28 -47z m228 22 c0 -22 4 -25 40 -25 36 0 40 3 40 25 0 14 5 25 10 25
6 0 10 -28 10 -65 0 -37 -4 -65 -10 -65 -5 0 -10 14 -10 30 0 28 -2 30 -40 30
-38 0 -40 -2 -40 -30 0 -16 -4 -30 -10 -30 -6 0 -10 28 -10 65 0 37 4 65 10
65 6 0 10 -11 10 -25z m265 15 c-3 -5 -22 -10 -41 -10 -24 0 -34 -5 -34 -15 0
-10 10 -15 29 -15 17 0 33 -4 36 -10 4 -6 -8 -10 -29 -10 -29 0 -36 -4 -36
-20 0 -17 7 -20 40 -20 22 0 40 -4 40 -10 0 -5 -22 -10 -50 -10 l-50 0 0 65 0
65 51 0 c31 0 48 -4 44 -10z m165 0 c0 -5 -18 -10 -40 -10 -29 0 -40 -4 -40
-15 0 -10 11 -15 35 -15 19 0 35 -4 35 -10 0 -5 -16 -10 -35 -10 -28 0 -35 -4
-35 -20 0 -17 7 -20 40 -20 22 0 40 -4 40 -10 0 -5 -22 -10 -50 -10 l-50 0 0
65 0 65 50 0 c28 0 50 -4 50 -10z m80 -45 l0 -55 40 0 c22 0 40 -4 40 -10 0
-5 -22 -10 -50 -10 l-50 0 0 65 c0 37 4 65 10 65 6 0 10 -25 10 -55z m224 49
c9 -3 14 -10 11 -15 -3 -4 -16 -5 -28 0 -12 4 -28 6 -34 4 -25 -9 -12 -30 24
-39 63 -15 53 -74 -12 -74 -33 0 -64 23 -46 34 5 4 12 2 16 -4 3 -5 19 -10 36
-10 43 0 36 25 -11 39 -32 9 -40 17 -40 35 0 12 3 26 7 29 8 9 56 9 77 1z
m531 -19 c0 -25 -40 -33 -49 -10 -9 24 2 37 27 33 14 -2 22 -10 22 -23z m-144
-16 c-31 -29 -13 -49 23 -25 35 22 56 20 56 -6 0 -26 -27 -58 -49 -57 -11 0
-10 3 6 11 12 6 24 17 27 25 11 28 -5 33 -35 12 -24 -17 -33 -18 -44 -9 -8 7
-15 17 -15 23 0 14 30 47 43 47 6 0 1 -10 -12 -21z m-2176 -59 l-7 -40 43 0
42 0 -39 -35 c-21 -19 -46 -34 -54 -35 -8 0 3 12 24 28 l39 27 -35 3 c-32 3
-34 5 -30 34 l5 32 -28 -22 c-15 -12 -30 -20 -33 -17 -3 3 -3 6 -1 8 2 2 19
15 37 30 19 15 36 27 39 27 2 0 2 -18 -2 -40z m2555 -15 c0 -8 -7 -15 -15 -15
-16 0 -20 12 -8 23 11 12 23 8 23 -8z m-460 -105 c16 0 32 -5 36 -11 5 -9 -4
-10 -31 -5 l-38 7 7 -40 c4 -24 2 -42 -5 -46 -13 -9 -18 -4 -22 23 -2 12 -14
33 -27 47 -13 14 -19 25 -13 25 6 0 16 -7 23 -15 21 -26 30 -17 32 33 1 36 2
39 5 15 4 -29 8 -33 33 -33z m130 21 c0 -14 -18 -23 -30 -16 -6 4 -8 11 -5 16
8 12 35 12 35 0z m-2020 -74 c0 -4 -12 1 -27 13 -34 26 -56 11 -28 -20 10 -11
16 -22 13 -25 -3 -3 -11 1 -18 10 -15 19 -40 20 -40 2 0 -8 9 -22 20 -32 11
-10 18 -21 15 -23 -6 -6 -55 38 -55 49 0 5 14 24 31 43 l31 35 29 -21 c16 -12
29 -26 29 -31z m1990 -32 c0 -8 -4 -15 -9 -15 -5 0 -11 7 -15 15 -3 9 0 15 9
15 8 0 15 -7 15 -15z m-287 -15 c-36 -22 -41 -40 -17 -64 21 -21 40 -20 64 4
24 24 27 14 3 -12 -31 -34 -93 -13 -93 33 0 24 34 59 58 59 11 0 6 -7 -15 -20z
m-1575 -66 c27 5 33 4 22 -3 -8 -6 -23 -11 -32 -11 -14 0 -18 -9 -19 -37 -1
-28 -3 -31 -6 -13 -7 35 -18 44 -42 31 -12 -7 -21 -8 -21 -2 0 5 11 12 25 15
20 5 25 13 26 39 2 31 2 31 6 4 4 -27 7 -29 41 -23z m1440 -65 c43 -31 54 -46
27 -35 -24 9 -65 -15 -66 -38 -1 -15 -3 -13 -9 9 -11 41 -12 95 -2 95 4 0 27
-14 50 -31z m272 17 c0 -18 -17 -29 -30 -21 -8 5 -7 11 1 21 15 18 29 18 29 0z
m-1554 -22 c14 -11 15 -14 3 -11 -22 7 -57 -62 -37 -74 10 -7 10 -9 -3 -9 -8
0 -24 7 -35 16 -14 11 -15 14 -3 11 22 -7 57 62 37 74 -10 7 -10 9 3 9 8 0 24
-7 35 -16z m-305 -46 c-10 -11 -11 -9 -5 6 6 15 4 17 -6 11 -9 -6 -11 -4 -5 4
5 9 10 10 18 2 8 -8 7 -14 -2 -23z m1422 -43 c19 -53 12 -56 -52 -20 -23 14
-45 25 -47 25 -1 0 4 -16 12 -36 8 -20 13 -39 10 -41 -3 -3 -10 5 -15 18 -5
13 -14 36 -20 52 -14 35 0 36 54 2 53 -33 58 -31 40 11 -17 42 -18 47 -6 40 5
-4 16 -26 24 -51z m-935 12 c7 -5 10 -12 7 -15 -2 -3 -11 1 -19 7 -23 20 -60
10 -64 -17 -5 -30 14 -52 47 -53 26 -2 26 -2 -2 -6 -33 -5 -67 20 -67 49 0 10
9 27 21 39 20 20 48 19 77 -4z m1252 -13 c0 -8 -4 -12 -10 -9 -5 3 -10 10 -10
16 0 5 5 9 10 9 6 0 10 -7 10 -16z m200 6 c0 -5 -7 -10 -15 -10 -8 0 -15 5
-15 10 0 6 7 10 15 10 8 0 15 -4 15 -10z m-1274 -76 c18 -67 17 -71 -6 -46
-22 23 -54 29 -65 12 -3 -5 -10 -10 -16 -10 -5 0 6 22 23 50 18 27 37 48 42
47 5 -2 15 -25 22 -53z m510 47 c-37 -8 -47 -31 -13 -31 38 0 57 -10 57 -31 0
-24 -35 -42 -63 -32 -20 6 -18 8 12 13 49 7 49 26 1 34 -30 5 -40 11 -40 24 0
26 9 32 44 31 l31 -1 -29 -7z m-1177 -27 c14 -12 -19 -1 -35 12 -18 14 -18 14
6 3 14 -6 27 -13 29 -15z m846 -35 l30 -41 3 34 c6 56 22 57 22 0 0 -63 -13
-66 -55 -12 -16 21 -33 39 -37 40 -4 0 -9 -19 -11 -42 -3 -41 -4 -41 -5 10 -2
64 11 67 53 11z m715 25 c11 -12 10 -18 -3 -32 -16 -15 -18 -15 -33 0 -19 18
-12 48 9 48 8 0 20 -7 27 -16z m430 9 c-1 -18 -18 -35 -24 -24 -4 6 -4 16 -1
21 7 12 25 13 25 3z m-1970 -54 c0 -5 -4 -9 -10 -9 -5 0 -10 7 -10 16 0 8 5
12 10 9 6 -3 10 -10 10 -16z m130 11 c0 -5 -4 -10 -10 -10 -5 0 -10 5 -10 10
0 6 5 10 10 10 6 0 10 -4 10 -10z m276 -25 c-3 -9 -10 -13 -16 -10 -6 4 -5 11
3 20 15 16 22 11 13 -10z m788 -20 c3 -9 -1 -18 -10 -22 -19 -7 -26 0 -18 21
8 20 20 21 28 1z m186 -16 c0 -5 -9 -9 -20 -9 -19 0 -27 20 -13 33 7 8 33 -11
33 -24z m-1116 15 c8 -3 12 -12 10 -19 -7 -17 -34 -8 -34 11 0 16 2 16 24 8z
m-384 -34 c0 -5 -2 -10 -4 -10 -3 0 -8 5 -11 10 -3 6 -1 10 4 10 6 0 11 -4 11
-10z m680 -40 c0 -13 -5 -18 -15 -14 -16 7 -19 17 -8 27 12 13 23 7 23 -13z
m188 -23 c4 -20 -25 -34 -40 -19 -15 15 -1 44 19 40 10 -2 19 -11 21 -21z
m950 -19 c-6 -18 -28 -21 -28 -4 0 9 7 16 16 16 9 0 14 -5 12 -12z m-1488 -8
c0 -5 -4 -10 -10 -10 -5 0 -10 5 -10 10 0 6 5 10 10 10 6 0 10 -4 10 -10z
m1662 -32 c-6 -6 -15 -8 -19 -4 -4 4 -1 11 7 16 19 12 27 3 12 -12z m-1697
-38 c3 -5 -3 -10 -15 -10 -12 0 -18 5 -15 10 3 6 10 10 15 10 5 0 12 -4 15
-10z m-245 -20 c0 -5 -7 -7 -15 -4 -8 4 -15 8 -15 10 0 2 7 4 15 4 8 0 15 -4
15 -10z m1171 -33 c-13 -13 -26 -3 -16 12 3 6 11 8 17 5 6 -4 6 -10 -1 -17z
m8 -83 c-9 -11 -15 -12 -23 -4 -8 8 -7 13 4 20 20 12 33 1 19 -16z m-329 -9
c0 -8 -7 -15 -15 -15 -8 0 -15 7 -15 15 0 8 7 15 15 15 8 0 15 -7 15 -15z
m134 -124 c3 -5 -1 -11 -9 -15 -15 -6 -29 7 -18 18 9 9 21 8 27 -3z"/>
<path d="M2538 3289 c-23 -13 -22 -18 8 -53 22 -25 28 -27 50 -17 l25 11 -27
35 c-29 38 -31 39 -56 24z"/>
<path d="M2480 3251 c0 -12 61 -63 67 -57 9 8 -38 66 -53 66 -8 0 -14 -4 -14
-9z"/>
<path d="M2612 3207 l-23 -13 30 -33 c29 -31 60 -38 68 -16 2 6 -9 25 -24 43
-26 29 -30 30 -51 19z"/>
<path d="M2560 3177 c0 -2 14 -16 32 -33 30 -28 30 -17 0 19 -13 15 -32 23
-32 14z"/>
<path d="M2687 3126 c-17 -13 -11 -21 73 -107 81 -84 90 -91 90 -67 0 19 -21
50 -71 108 -40 44 -72 80 -73 80 -1 0 -9 -7 -19 -14z"/>
<path d="M2901 2554 c-13 -53 -5 -78 15 -43 15 27 19 89 5 89 -5 0 -14 -20
-20 -46z"/>
<path d="M1770 1152 c0 -11 119 -66 127 -58 3 3 -21 17 -53 33 -33 15 -62 29
-66 31 -5 2 -8 -1 -8 -6z"/>
<path d="M1782 1838 c-7 -7 -12 -21 -12 -33 0 -28 19 -45 50 -45 31 0 50 17
50 45 0 28 -19 45 -50 45 -14 0 -31 -5 -38 -12z"/>
<path d="M3160 1418 c0 -24 15 -37 30 -28 11 7 11 11 1 24 -16 19 -31 21 -31
4z"/>
<path d="M2242 1265 c-10 -22 -9 -25 8 -25 13 0 20 7 20 19 0 30 -16 33 -28 6z"/>
</g>
</svg>
